<svg id="Capa_1" data-name="Capa 1" xmlns="http://www.w3.org/2000/svg" viewBox="0 0 178.05 192.82"><defs><style>.cls-1{fill:#fff;}</style></defs><g id="Icon_ionic-ios-volume-off" data-name="Icon ionic-ios-volume-off"><path id="Unión_52" data-name="Unión 52" class="cls-1" d="M7255.14,7292.74,7149.4,7113a6.48,6.48,0,0,1,2.26-8.89l.1-.06a6.64,6.64,0,0,1,9,2.36l105.75,179.74a6.59,6.59,0,0,1-11.41,6.58Zm2.09-37.18a90.72,90.72,0,0,0-7.74-120.61,5.58,5.58,0,1,1,7.83-7.95,101.87,101.87,0,0,1,6,138.76Zm-85.26-5.71-30.31-24.33h-24.58a7.45,7.45,0,0,1-7.42-7.42V7181a7.42,7.42,0,0,1,7.42-7.42h24.58l23.65-18.95,18.77,31.9v57.55a7.39,7.39,0,0,1-4.23,6.68,7,7,0,0,1-3.17.75,7.62,7.62,0,0,1-4.71-1.66Zm69-21.88a65.27,65.27,0,0,0-12.11-73.85,5.58,5.58,0,0,1,7.93-7.84,76.41,76.41,0,0,1,10.75,92.86Zm-36.3-61.61a6.9,6.9,0,0,1,.74-.88,5.56,5.56,0,0,1,7.87.05h0a48,48,0,0,1,13.9,34c0,1.58-.08,3.17-.23,4.73Z" transform="translate(-7109.66 -7103.16)"/></g></svg>