<svg id="Capa_1" data-name="Capa 1" xmlns="http://www.w3.org/2000/svg" viewBox="0 0 178 222.52"><defs><style>.cls-1{fill:#fff;}</style></defs><g id="Icon_ionic-ios-pause" data-name="Icon ionic-ios-pause"><path id="Unión_4" data-name="Unión 4" class="cls-1" d="M7238.5,7310.76a5.59,5.59,0,0,1-5.61-5.57V7093.81a5.58,5.58,0,0,1,5.6-5.57h44.38a5.59,5.59,0,0,1,5.63,5.55v211.4a5.6,5.6,0,0,1-5.63,5.57Zm-122.36,0a5.61,5.61,0,0,1-5.64-5.57V7093.81a5.6,5.6,0,0,1,5.63-5.57h44.36a5.6,5.6,0,0,1,5.63,5.56h0v211.38a5.61,5.61,0,0,1-5.63,5.57Z" transform="translate(-7110.5 -7088.24)"/></g></svg>