<svg id="Capa_1" data-name="Capa 1" xmlns="http://www.w3.org/2000/svg" viewBox="0 0 177.94 148.79"><defs><style>.cls-1{fill:#fff;}</style></defs><g id="Icon_ionic-ios-volume-high" data-name="Icon ionic-ios-volume-high"><path id="Unión_51" data-name="Unión 51" class="cls-1" d="M7249.39,7272.27a5.58,5.58,0,0,1,0-7.89h0a91.07,91.07,0,0,0,.73-128.79l-.73-.74a5.58,5.58,0,1,1,7.57-8.21l.27.27a102.13,102.13,0,0,1,.95,144.43l-1,1a5.52,5.52,0,0,1-3.91,1.62A5.42,5.42,0,0,1,7249.39,7272.27Zm-20.45-19.15a5.58,5.58,0,0,1,0-7.89h0a65.3,65.3,0,0,0,0-91.16,5.58,5.58,0,1,1,7.67-8.12l.27.27a76.44,76.44,0,0,1,0,106.86,5.46,5.46,0,0,1-3.95,1.67A5.57,5.57,0,0,1,7228.94,7253.12Zm-57-3.1-30.28-24.4h-24.54a7.45,7.45,0,0,1-7.43-7.43V7181a7.45,7.45,0,0,1,7.43-7.43h24.54l30.29-24.44a7.47,7.47,0,0,1,4.65-1.62,7.18,7.18,0,0,1,3.18.75A7.43,7.43,0,0,1,7184,7155v89.2a7.43,7.43,0,0,1-4.22,6.69,7.31,7.31,0,0,1-3.18.74A7.59,7.59,0,0,1,7172,7250Zm33.46-16.22a5.57,5.57,0,0,1-.06-7.89h0a37.71,37.71,0,0,0,0-52.59,5.58,5.58,0,0,1,7.67-8.12c.09.09.19.18.27.27a49,49,0,0,1,0,68.3,5.5,5.5,0,0,1-3.95,1.67,5.56,5.56,0,0,1-3.9-1.63Z" transform="translate(-7109.73 -7125.15)"/></g></svg>