<svg id="Capa_1" data-name="Capa 1" xmlns="http://www.w3.org/2000/svg" viewBox="0 0 43.2 51.25"><defs><style>.cls-1,.cls-3{fill:none;}.cls-2{fill:#007aff;}.cls-3{stroke:#007aff;stroke-width:2px;}</style></defs><g id="Grupo_105" data-name="Grupo 105"><g id="Trazado_153" data-name="Trazado 153"><path class="cls-1" d="M951.67,511.47c11.92,0,21.6,9.23,21.6,20.61v26s-2.51,5.83-7.66,4.48c-3.32-.88-8.93-4.48-13.94-4.48-3.7,0-7.83,3.65-11.72,4.48-5.64,1.19-9.11-4.48-9.11-4.48l-.77-26C930.07,520.7,939.74,511.47,951.67,511.47Z" transform="translate(-930.07 -511.47)"/><path class="cls-2" d="M951.66,515A18.48,18.48,0,0,0,938.81,520a16.51,16.51,0,0,0-5.24,12l.73,24.82c.73.87,2.24,2.33,4.1,2.33a3.88,3.88,0,0,0,.82-.09,20,20,0,0,0,4.34-1.86c2.54-1.32,5.18-2.69,8.1-2.69,4,0,8.06,1.76,11.28,3.18a29.78,29.78,0,0,0,3.56,1.41,2.39,2.39,0,0,0,.63.09,2.45,2.45,0,0,0,1.88-1,6.86,6.86,0,0,0,.75-1V532.08a16.53,16.53,0,0,0-5.24-12A18.51,18.51,0,0,0,951.66,515m0-3.5c11.93,0,21.6,9.23,21.6,20.61v26s-2,4.68-6.13,4.68a5.94,5.94,0,0,1-1.52-.2c-3.33-.88-8.94-4.48-14-4.48-3.7,0-7.82,3.65-11.71,4.48a7.77,7.77,0,0,1-1.55.16c-4.72,0-7.56-4.64-7.56-4.64l-.77-26C930.07,520.7,939.74,511.47,951.66,511.47Z" transform="translate(-930.07 -511.47)"/></g><g id="Elipse_32" data-name="Elipse 32"><circle class="cls-1" cx="13.76" cy="16" r="6"/><circle class="cls-3" cx="13.76" cy="16" r="5"/></g><circle id="Elipse_35" data-name="Elipse 35" class="cls-2" cx="11.68" cy="17.71" r="3.25"/><g id="Elipse_97" data-name="Elipse 97"><circle class="cls-1" cx="28.76" cy="16" r="6"/><circle class="cls-3" cx="28.76" cy="16" r="5"/></g><circle id="Elipse_98" data-name="Elipse 98" class="cls-2" cx="26.68" cy="17.71" r="3.25"/></g></svg>