<svg id="Capa_1" data-name="Capa 1" xmlns="http://www.w3.org/2000/svg" viewBox="0 0 52.83 52.81"><defs><style>.cls-1{fill:none;stroke:#007aff;stroke-linecap:round;stroke-linejoin:round;stroke-width:4.06px;}</style></defs><g id="layers-outline"><path id="Trazado_397" data-name="Trazado 397" class="cls-1" d="M974.36,522.64l-19-8.64a10.27,10.27,0,0,0-7.48,0L929,522.64c-2.23,1-2.23,2.68,0,3.7l18.79,8.56a10.77,10.77,0,0,0,7.82,0l18.79-8.56C976.59,525.32,976.59,523.66,974.36,522.64Z" transform="translate(-925.25 -511.26)"/><path id="Trazado_398" data-name="Trazado 398" class="cls-1" d="M939.47,544.34,929,549.05c-2.23,1-2.23,2.68,0,3.69l18.79,8.57a10.77,10.77,0,0,0,7.82,0l18.79-8.57c2.23-1,2.23-2.68,0-3.69l-10.15-4.89" transform="translate(-925.25 -511.26)"/><path id="Trazado_399" data-name="Trazado 399" class="cls-1" d="M939.47,531.13,929,535.84c-2.23,1-2.23,2.68,0,3.7l18.79,8.57a10.87,10.87,0,0,0,7.82,0l18.79-8.57c2.25-1,2.25-2.68,0-3.7l-10.52-4.71" transform="translate(-925.25 -511.26)"/></g></svg>