<svg id="Capa_1" data-name="Capa 1" xmlns="http://www.w3.org/2000/svg" viewBox="0 0 56.88 52.81"><defs><style>.cls-1{fill:#007aff;}</style></defs><path id="ios-star-outline" class="cls-1" d="M986.74,532H968.06L962.39,515a2.06,2.06,0,0,0-3.86,0L952.86,532h-18.8a2,2,0,0,0-2,2,1.86,1.86,0,0,0,0,.34,2,2,0,0,0,.85,1.44l15.35,10.81-5.89,17.13a2.06,2.06,0,0,0,.7,2.29,2,2,0,0,0,1.14.49,2.42,2.42,0,0,0,1.27-.46l15-10.67,15,10.67a2.34,2.34,0,0,0,1.27.46,1.84,1.84,0,0,0,1.13-.49,2,2,0,0,0,.7-2.29l-5.89-17.13,15.22-10.91.37-.32a1.94,1.94,0,0,0-1.5-3.39Zm-16.15,11.74a3.56,3.56,0,0,0-1.29,4l3.82,11.13a.51.51,0,0,1-.31.65.52.52,0,0,1-.47-.06l-9.82-7a3.59,3.59,0,0,0-2.07-.66,3.53,3.53,0,0,0-2.06.66l-9.83,7a.5.5,0,0,1-.71-.11.52.52,0,0,1-.06-.47l3.82-11.13a3.58,3.58,0,0,0-1.31-4.07L940,536.42a.51.51,0,0,1-.12-.71.52.52,0,0,1,.41-.21h12.53a3.56,3.56,0,0,0,3.37-2.43l3.76-11.2a.51.51,0,0,1,.65-.31.53.53,0,0,1,.31.31l3.76,11.2a3.54,3.54,0,0,0,3.36,2.42h12.36a.52.52,0,0,1,.51.49.53.53,0,0,1-.22.43l-10.1,7.3Z" transform="translate(-932.02 -513.69)"/></svg>