<svg id="Capa_1" data-name="Capa 1" xmlns="http://www.w3.org/2000/svg" viewBox="0 0 56.88 44.69"><defs><style>.cls-1{fill:none;stroke:#007aff;stroke-linejoin:round;stroke-width:4.06px;}</style></defs><g id="film-outline"><path id="Trazado_429" data-name="Trazado 429" class="cls-1" d="M928.81,517.35h45.7a3.56,3.56,0,0,1,3.56,3.56v33.51a3.56,3.56,0,0,1-3.56,3.56h-45.7a3.55,3.55,0,0,1-3.55-3.56V520.91A3.56,3.56,0,0,1,928.81,517.35Z" transform="translate(-923.23 -515.32)"/><path id="Trazado_430" data-name="Trazado 430" class="cls-1" d="M971.47,547.82h3a3.55,3.55,0,0,1,3.55,3.56v3a3.55,3.55,0,0,1-3.55,3.56h-3a3.55,3.55,0,0,1-3.55-3.56h0v-3a3.55,3.55,0,0,1,3.55-3.56Z" transform="translate(-923.23 -515.32)"/><path id="Trazado_431" data-name="Trazado 431" class="cls-1" d="M971.47,537.67h3a3.55,3.55,0,0,1,3.55,3.55v3a3.55,3.55,0,0,1-3.55,3.55h-3a3.55,3.55,0,0,1-3.55-3.55v-3a3.55,3.55,0,0,1,3.55-3.55Z" transform="translate(-923.23 -515.32)"/><path id="Trazado_432" data-name="Trazado 432" class="cls-1" d="M971.47,527.51h3a3.55,3.55,0,0,1,3.55,3.56v3a3.55,3.55,0,0,1-3.55,3.56h-3a3.56,3.56,0,0,1-3.55-3.56h0v-3a3.55,3.55,0,0,1,3.55-3.56Z" transform="translate(-923.23 -515.32)"/><path id="Trazado_433" data-name="Trazado 433" class="cls-1" d="M971.47,517.35h3a3.56,3.56,0,0,1,3.55,3.56V524a3.55,3.55,0,0,1-3.55,3.55h-3a3.55,3.55,0,0,1-3.55-3.55h0v-3.05A3.56,3.56,0,0,1,971.47,517.35Z" transform="translate(-923.23 -515.32)"/><path id="Trazado_434" data-name="Trazado 434" class="cls-1" d="M928.81,547.82h3.05a3.56,3.56,0,0,1,3.56,3.56h0v3a3.55,3.55,0,0,1-3.55,3.56h-3.06a3.55,3.55,0,0,1-3.55-3.56v-3A3.55,3.55,0,0,1,928.81,547.82Z" transform="translate(-923.23 -515.32)"/><path id="Trazado_435" data-name="Trazado 435" class="cls-1" d="M928.81,537.67h3.05a3.55,3.55,0,0,1,3.56,3.55h0v3a3.55,3.55,0,0,1-3.55,3.55h-3.06a3.55,3.55,0,0,1-3.55-3.55v-3A3.55,3.55,0,0,1,928.81,537.67Z" transform="translate(-923.23 -515.32)"/><path id="Trazado_436" data-name="Trazado 436" class="cls-1" d="M928.81,527.51h3.05a3.56,3.56,0,0,1,3.56,3.56h0v3a3.57,3.57,0,0,1-3.55,3.56h-3.06a3.56,3.56,0,0,1-3.55-3.56v-3a3.55,3.55,0,0,1,3.55-3.56Z" transform="translate(-923.23 -515.32)"/><path id="Trazado_437" data-name="Trazado 437" class="cls-1" d="M928.81,517.35h3.05a3.57,3.57,0,0,1,3.56,3.56V524a3.55,3.55,0,0,1-3.55,3.55h-3.06a3.55,3.55,0,0,1-3.55-3.55v-3.05A3.56,3.56,0,0,1,928.81,517.35Z" transform="translate(-923.23 -515.32)"/><path id="Trazado_438" data-name="Trazado 438" class="cls-1" d="M939,517.35h25.39a3.57,3.57,0,0,1,3.56,3.56v13.2a3.57,3.57,0,0,1-3.55,3.56H939a3.56,3.56,0,0,1-3.55-3.56h0v-13.2a3.57,3.57,0,0,1,3.55-3.56Z" transform="translate(-923.23 -515.32)"/><path id="Trazado_439" data-name="Trazado 439" class="cls-1" d="M939,537.67h25.39a3.55,3.55,0,0,1,3.56,3.55h0v13.2a3.56,3.56,0,0,1-3.55,3.56H939a3.55,3.55,0,0,1-3.55-3.56h0v-13.2a3.55,3.55,0,0,1,3.55-3.55Z" transform="translate(-923.23 -515.32)"/></g></svg>