<svg id="Capa_1" data-name="Capa 1" xmlns="http://www.w3.org/2000/svg" viewBox="0 0 48.88 47"><defs><style>.cls-1{fill:#007aff;}</style></defs><path id="ios-heart-empty" class="cls-1" d="M963,514.17h-.12a13.37,13.37,0,0,0-11.16,6.11,13.37,13.37,0,0,0-11.17-6.11h-.11a13.28,13.28,0,0,0-13.16,13.27c0,4.35,1.9,10.52,5.61,15.6,7.08,9.67,18.83,18.13,18.83,18.13s11.75-8.46,18.82-18.13c3.71-5.08,5.62-11.25,5.62-15.6A13.29,13.29,0,0,0,963,514.17Zm4.88,26.93c-5,6.85-12.63,13.17-16.16,15.93-3.54-2.76-11.17-9.09-16.17-15.94-3.44-4.7-5-10.24-5-13.64a10,10,0,0,1,9.89-10h.11a9.87,9.87,0,0,1,4.83,1.27,10.32,10.32,0,0,1,3.57,3.35,3.3,3.3,0,0,0,5.52,0,10.32,10.32,0,0,1,3.57-3.35,9.87,9.87,0,0,1,4.83-1.27H963a10,10,0,0,1,9.88,10A25.63,25.63,0,0,1,967.83,541.1Z" transform="translate(-927.23 -514.17)"/></svg>