<svg id="Capa_1" data-name="Capa 1" xmlns="http://www.w3.org/2000/svg" viewBox="0 0 44.69 60.94"><defs><style>.cls-1{fill:none;stroke:#007aff;stroke-linecap:round;stroke-linejoin:round;stroke-width:4.06px;}</style></defs><g id="ice-cream-outline"><path id="Trazado_443" data-name="Trazado 443" class="cls-1" d="M963.86,537.67l-12.19,28.44L943.8,547.7" transform="translate(-929.32 -507.2)"/><path id="Trazado_444" data-name="Trazado 444" class="cls-1" d="M957.18,533.54a6.21,6.21,0,0,1-5.51,3.62,8.16,8.16,0,0,1-4.27-1.24,1.09,1.09,0,0,0-1.55.08,1.08,1.08,0,0,0-.28.91v7.87a3,3,0,0,1-3,3h0a3.05,3.05,0,0,1-3-3v-7.11h-.25a7.92,7.92,0,0,1-7.88-7.95,1.09,1.09,0,0,1,0-.18,8.11,8.11,0,0,1,8.12-8.12h1v-1a11.17,11.17,0,0,1,22.34,0h0v1h1a8.13,8.13,0,0,1,0,16.25,7.74,7.74,0,0,1-6.68-4.13Z" transform="translate(-929.32 -507.2)"/></g></svg>