<svg id="Capa_1" data-name="Capa 1" xmlns="http://www.w3.org/2000/svg" viewBox="0 0 300.87 250.88"><defs><style>.cls-1{fill:#007aff;}</style></defs><path id="ios-chatbubble-outline" class="cls-1" d="M960.53,427.53c76,0,138,48.6,138,108.41a92.89,92.89,0,0,1-38.83,73.61,160.86,160.86,0,0,1-98.37,30.8,169.6,169.6,0,0,1-54.64-7.29c-.46-.15-1-.39-1.57-.54a2.69,2.69,0,0,0-.62-.16,41.13,41.13,0,0,0-24.31.39l-.26.13c-.47.16-7,2.59-8.63,3.36l-31.06,13.48C851,615.3,851,614.61,851,612.4a28.48,28.48,0,0,0-4.94-15.83c-.39-.54-.77-1.09-1.26-1.65s-1-1.33-1.41-1.8a91.63,91.63,0,0,1-20.85-57.23c0-59.73,61.93-108.36,138-108.36m0-12.55C877.32,415,810,469.19,810,536a104,104,0,0,0,23.82,65.29,34.23,34.23,0,0,1,2.82,3.85s-.78-1.26-.86-1.49a15.17,15.17,0,0,1,2.82,8.77c0,1.1-14,45.47-14,45.47a6.63,6.63,0,0,0,5.28,7.74c.22,0,.45.07.68.09a7.88,7.88,0,0,0,1.88.16,11.91,11.91,0,0,0,2.9-.39l1.26-.47,39.69-17.25c.69-.31,7.05-2.75,7.83-3.06l.47-.15a1.84,1.84,0,0,0-.47.15,26.41,26.41,0,0,1,8.77-1.41,27.29,27.29,0,0,1,8.08,1.17c.08,0,.16,0,.16.08.38.15.77.23,1.17.39A181.74,181.74,0,0,0,961.15,653c83.1,0,149.74-50.25,149.74-117,.16-66.76-67.26-120.94-150.36-120.94Z" transform="translate(-810.02 -414.98)"/></svg>