<svg id="Capa_1" data-name="Capa 1" xmlns="http://www.w3.org/2000/svg" viewBox="0 0 56.87 56.88"><defs><style>.cls-1,.cls-2{fill:none;stroke:#007aff;stroke-width:4.06px;}.cls-1{stroke-linecap:round;stroke-linejoin:round;}.cls-2{stroke-miterlimit:10;}</style></defs><g id="headset-outline"><path id="Trazado_440" data-name="Trazado 440" class="cls-1" d="M929.7,553.92c-1.65-4.19-4.44-11.85-4.44-16.25,0-14.59,12.86-26.41,26.41-26.41s26.4,11.82,26.4,26.41c0,4.4-2.92,12.31-4.44,16.25" transform="translate(-923.23 -509.23)"/><path id="Trazado_441" data-name="Trazado 441" class="cls-2" d="M932.93,539.46l-1.74,1h0c-3.84,2.24-4,9.19-.43,15.51s9.63,9.62,13.47,7.38h0l1.74-1a2,2,0,0,0,.73-2.77l-11-19.37a2,2,0,0,0-2.73-.76h0Z" transform="translate(-923.23 -509.23)"/><path id="Trazado_442" data-name="Trazado 442" class="cls-2" d="M970.41,539.46l1.73,1h0c3.84,2.24,4,9.19.43,15.51s-9.63,9.62-13.47,7.38h0l-1.73-1a2,2,0,0,1-.74-2.77l11-19.37a2,2,0,0,1,2.72-.76Z" transform="translate(-923.23 -509.23)"/></g></svg>