<svg id="Capa_1" data-name="Capa 1" xmlns="http://www.w3.org/2000/svg" viewBox="0 0 46.37 46.37"><defs><style>.cls-1{fill:none;stroke:#007aff;stroke-linecap:round;stroke-linejoin:round;stroke-width:3.31px;}</style></defs><g id="grid-outline"><path id="Trazado_672" data-name="Trazado 672" class="cls-1" d="M663.46,362.36h14.07a2.08,2.08,0,0,1,2.08,2.07h0v14.08a2.07,2.07,0,0,1-2.07,2.07H663.46a2.07,2.07,0,0,1-2.07-2.07h0V364.43a2.07,2.07,0,0,1,2.07-2.07Z" transform="translate(-659.73 -360.7)"/><path id="Trazado_673" data-name="Trazado 673" class="cls-1" d="M688.3,362.36h14.08a2.07,2.07,0,0,1,2.07,2.07v14.08a2.07,2.07,0,0,1-2.07,2.07H688.3a2.07,2.07,0,0,1-2.07-2.07h0V364.43a2.07,2.07,0,0,1,2.07-2.07Z" transform="translate(-659.73 -360.7)"/><path id="Trazado_674" data-name="Trazado 674" class="cls-1" d="M663.46,387.2h14.07a2.08,2.08,0,0,1,2.08,2.07h0v14.08a2.07,2.07,0,0,1-2.07,2.07H663.46a2.07,2.07,0,0,1-2.07-2.07h0V389.27A2.07,2.07,0,0,1,663.46,387.2Z" transform="translate(-659.73 -360.7)"/><path id="Trazado_675" data-name="Trazado 675" class="cls-1" d="M688.3,387.2h14.08a2.07,2.07,0,0,1,2.07,2.07v14.08a2.07,2.07,0,0,1-2.07,2.07H688.3a2.07,2.07,0,0,1-2.07-2.07V389.27A2.07,2.07,0,0,1,688.3,387.2Z" transform="translate(-659.73 -360.7)"/></g></svg>