<svg id="Capa_1" data-name="Capa 1" xmlns="http://www.w3.org/2000/svg" xmlns:xlink="http://www.w3.org/1999/xlink" viewBox="0 0 46.97 46.93"><defs><style>.cls-1,.cls-3{fill:none;}.cls-2{clip-path:url(#clip-path);}.cls-3{stroke:#007aff;stroke-linecap:round;stroke-linejoin:round;stroke-width:3.36px;}</style><clipPath id="clip-path" transform="translate(-928.17 -514.21)"><rect class="cls-1" x="928.17" y="514.17" width="47" height="47"/></clipPath></defs><g class="cls-2"><g id="Enmascarar_grupo_11" data-name="Enmascarar grupo 11"><g id="_TEMP_SVG" data-name="  TEMP  SVG"><path id="Trazado_379" data-name="Trazado 379" class="cls-3" d="M973.23,516.48a.45.45,0,0,0-.34-.35c-5.71-1.4-18.87,3.57-26,10.71a31,31,0,0,0-3.47,4.1,13.07,13.07,0,0,0-6.28.78c-5.29,2.33-6.83,8.41-7.26,11a1,1,0,0,0,.78,1.08,1,1,0,0,0,.25,0l8.5-.93a17.33,17.33,0,0,0,.11,1.91,1.9,1.9,0,0,0,.56,1.17l3.29,3.29a1.89,1.89,0,0,0,1.16.55c.64.07,1.27.11,1.91.12l-.94,8.49a.94.94,0,0,0,.85,1h.24c2.61-.42,8.7-2,11-7.26a12.93,12.93,0,0,0,.8-6.25,31.7,31.7,0,0,0,4.11-3.47c7.17-7.13,12.1-20,10.73-26Zm-17.1,16.76a4.48,4.48,0,1,1,3.16,1.31A4.47,4.47,0,0,1,956.13,533.24Z" transform="translate(-928.17 -514.21)"/><path id="Trazado_380" data-name="Trazado 380" class="cls-3" d="M936.31,547.74a4.74,4.74,0,0,0-2.76,1.34c-1.85,1.86-2,8.73-2,8.73s6.86-.18,8.71-2a4.67,4.67,0,0,0,1.35-2.76" transform="translate(-928.17 -514.21)"/></g></g></g></svg>