<svg id="Capa_1" data-name="Capa 1" xmlns="http://www.w3.org/2000/svg" xmlns:xlink="http://www.w3.org/1999/xlink" viewBox="0 0 46.71 46.72"><defs><style>.cls-1,.cls-3{fill:none;}.cls-2{clip-path:url(#clip-path);}.cls-3{stroke:#007aff;stroke-linecap:round;stroke-linejoin:round;stroke-width:3.34px;}.cls-4{fill:#007aff;}</style><clipPath id="clip-path" transform="translate(-928.31 -514.31)"><rect class="cls-1" x="928.17" y="514.17" width="47" height="47"/></clipPath></defs><g class="cls-2"><g id="Enmascarar_grupo_8" data-name="Enmascarar grupo 8"><g id="_TEMP_SVG" data-name="  TEMP  SVG"><path id="Trazado_373" data-name="Trazado 373" class="cls-3" d="M970.36,516H957.54a1.52,1.52,0,0,0-1.06.44L930.86,542a3,3,0,0,0,0,4.24l12.2,12.2a3,3,0,0,0,4.24,0l25.62-25.61a1.51,1.51,0,0,0,.43-1.06V519a3,3,0,0,0-3-3h0Z" transform="translate(-928.31 -514.31)"/><path id="Trazado_374" data-name="Trazado 374" class="cls-4" d="M965,527.65a3.34,3.34,0,1,1,3.33-3.33,3.33,3.33,0,0,1-3.33,3.33Z" transform="translate(-928.31 -514.31)"/></g></g></g></svg>