<?xml version="1.0" standalone="no"?>
<!DOCTYPE svg PUBLIC "-//W3C//DTD SVG 20010904//EN"
 "http://www.w3.org/TR/2001/REC-SVG-20010904/DTD/svg10.dtd">
<svg version="1.0" xmlns="http://www.w3.org/2000/svg"
 width="837.000000pt" height="837.000000pt" viewBox="0 0 837.000000 837.000000"
 preserveAspectRatio="xMidYMid meet">
<metadata>
Created by potrace 1.11, written by Peter Selinger 2001-2013
</metadata>
<g transform="translate(0.000000,837.000000) scale(0.100000,-0.100000)"
fill="#000000" stroke="none">
<path d="M3989 7615 c-2 -2 -44 -6 -94 -9 -89 -7 -107 -9 -195 -21 -101 -14
-118 -17 -185 -32 -38 -8 -81 -17 -95 -19 -61 -12 -285 -77 -385 -113 -280
-99 -515 -217 -765 -384 -339 -227 -656 -537 -892 -871 -290 -411 -511 -951
-583 -1421 -34 -225 -40 -310 -40 -560 0 -304 13 -431 81 -765 42 -209 175
-574 289 -794 80 -155 97 -184 181 -313 377 -578 917 -1030 1549 -1295 155
-65 356 -133 483 -163 9 -3 35 -9 57 -15 46 -11 298 -56 365 -64 269 -35 723
-28 955 14 28 5 67 12 88 15 22 3 96 19 165 36 70 17 136 32 146 34 30 7 172
55 271 92 446 167 847 419 1170 733 215 210 361 386 507 610 166 256 275 482
383 795 14 40 63 207 70 235 36 158 59 279 79 420 15 103 21 237 20 430 0 261
-9 373 -45 580 -189 1090 -892 2024 -1883 2504 -342 166 -751 285 -1101 321
-38 4 -79 10 -90 12 -24 5 -501 13 -506 8z m491 -178 c14 -3 56 -8 93 -12 37
-3 78 -8 90 -11 12 -2 40 -7 62 -9 69 -9 226 -45 335 -77 58 -16 120 -35 139
-40 44 -13 197 -71 254 -97 25 -12 49 -21 52 -21 14 0 275 -136 368 -192 394
-237 759 -583 1014 -963 195 -290 335 -588 429 -909 30 -103 44 -160 70 -281
43 -203 59 -381 59 -645 0 -263 -9 -366 -51 -590 -32 -167 -28 -150 -54 -245
-131 -474 -349 -894 -656 -1261 -69 -84 -283 -298 -379 -380 -351 -302 -818
-548 -1270 -670 -290 -78 -526 -108 -845 -109 -240 0 -383 12 -575 46 -33 6
-71 13 -85 15 -14 3 -33 7 -42 10 -9 3 -25 6 -35 8 -64 13 -199 52 -310 90
-398 135 -759 339 -1078 609 -69 59 -292 279 -351 348 -115 133 -290 380 -365
514 -153 277 -298 652 -349 901 -62 304 -75 431 -75 719 0 225 5 300 30 471
91 613 354 1192 754 1654 343 396 763 700 1238 894 104 43 305 113 345 121 9
2 50 13 90 24 40 11 89 23 108 26 19 3 51 10 70 15 36 9 90 17 170 26 25 3 54
7 65 9 11 2 56 7 100 11 44 4 82 8 84 10 6 5 473 -3 501 -9z"/>
<path d="M4009 7006 c-2 -2 -42 -6 -89 -10 -47 -3 -96 -8 -110 -10 -14 -3 -43
-7 -65 -11 -22 -3 -47 -7 -55 -10 -8 -2 -32 -6 -53 -10 -104 -15 -335 -83
-487 -142 -872 -342 -1520 -1103 -1723 -2024 -25 -111 -28 -130 -42 -234 -4
-27 -9 -61 -12 -75 -8 -43 -11 -494 -3 -546 4 -27 11 -76 14 -109 8 -75 14
-111 33 -200 8 -38 16 -78 18 -87 38 -180 166 -521 247 -661 15 -26 28 -50 28
-53 0 -5 118 -201 132 -219 4 -5 38 -51 75 -101 106 -142 138 -180 273 -314
464 -465 1025 -733 1710 -817 134 -16 532 -9 668 13 15 2 41 6 57 9 17 2 48 7
70 11 74 11 309 73 414 110 591 206 1102 607 1446 1134 87 133 210 374 269
528 32 83 108 335 121 401 51 261 63 397 60 646 -3 207 -5 232 -26 370 -6 39
-13 84 -15 100 -3 17 -7 37 -9 45 -2 8 -7 31 -10 50 -17 103 -104 369 -171
522 -321 733 -931 1294 -1682 1547 -157 53 -335 97 -477 117 -60 8 -121 18
-135 20 -30 6 -465 15 -471 10z m451 -180 c14 -3 48 -7 75 -10 28 -3 64 -7 80
-11 150 -29 205 -42 305 -71 626 -182 1143 -569 1505 -1124 48 -74 173 -314
209 -400 49 -119 113 -315 131 -398 2 -9 11 -51 20 -92 9 -41 18 -88 20 -105
2 -16 6 -47 10 -68 16 -93 23 -237 20 -424 -2 -111 -5 -205 -8 -210 -2 -4 -8
-37 -11 -73 -37 -348 -201 -791 -413 -1113 -128 -194 -336 -429 -503 -568 -36
-30 -67 -56 -70 -59 -17 -19 -194 -139 -279 -190 -179 -106 -313 -168 -521
-240 -110 -38 -302 -86 -415 -104 -238 -37 -572 -42 -785 -11 -861 122 -1594
635 -1993 1395 -160 304 -266 655 -294 978 -10 110 -10 402 -1 507 47 509 248
1004 574 1415 153 193 456 460 667 589 164 100 330 179 516 247 94 35 334 100
400 110 20 3 59 9 86 14 28 5 88 12 135 15 47 4 87 9 89 11 6 6 420 -3 451
-10z"/>
<path d="M4029 6416 c-2 -2 -36 -6 -74 -10 -75 -7 -101 -11 -181 -27 -28 -5
-64 -12 -80 -15 -45 -8 -130 -33 -229 -66 -287 -98 -523 -237 -779 -458 -55
-47 -185 -185 -241 -255 -240 -297 -432 -738 -471 -1076 -3 -30 -10 -81 -14
-114 -9 -61 -5 -432 5 -495 90 -587 333 -1035 775 -1429 243 -217 684 -430
1000 -485 14 -2 43 -7 65 -11 22 -4 48 -9 59 -11 110 -20 423 -26 569 -11 249
25 549 116 788 238 83 43 315 189 329 207 3 4 21 19 40 33 99 75 256 233 359
363 198 250 367 603 425 891 4 17 9 41 12 55 11 56 24 138 31 205 10 92 10
391 0 480 -7 68 -10 87 -22 150 -3 17 -8 44 -11 60 -19 108 -85 311 -150 458
-231 529 -681 958 -1224 1170 -172 66 -380 121 -550 142 -52 7 -425 16 -431
11z m421 -181 c265 -45 458 -103 645 -195 415 -204 743 -530 945 -939 103
-207 152 -357 195 -596 14 -79 20 -174 20 -325 0 -189 -7 -266 -36 -400 -11
-52 -22 -106 -25 -120 -7 -32 -71 -224 -92 -275 -103 -248 -275 -499 -468
-685 -332 -319 -735 -514 -1190 -574 -125 -16 -453 -14 -549 3 -180 34 -230
47 -370 93 -511 172 -966 570 -1188 1039 -75 158 -84 181 -121 299 -33 106
-71 273 -82 359 -9 75 -11 390 -3 471 38 370 181 734 407 1036 76 101 288 318
377 386 143 108 336 220 485 282 75 31 279 96 316 101 19 2 38 6 42 9 5 3 26
7 48 10 21 3 50 8 64 11 14 3 57 8 95 11 39 4 72 8 74 10 6 5 373 -4 411 -11z"/>
<path d="M3997 5919 c-27 -4 -69 -10 -94 -14 -79 -10 -213 -45 -311 -81 -260
-94 -470 -231 -662 -431 -108 -112 -121 -128 -198 -243 -132 -196 -239 -471
-268 -687 -3 -26 -10 -70 -14 -98 -13 -77 -4 -359 14 -460 55 -312 173 -578
359 -809 286 -357 684 -580 1142 -640 90 -12 367 -13 435 -2 14 2 45 7 70 11
205 29 454 124 644 244 418 263 718 714 790 1186 3 22 9 58 13 80 9 54 9 347
0 415 -5 30 -10 70 -12 89 -16 114 -80 317 -147 462 -52 111 -178 306 -243
375 -5 6 -29 31 -51 56 -60 65 -199 186 -274 239 -221 157 -492 262 -780 305
-66 9 -357 12 -413 3z m438 -179 c96 -14 287 -71 373 -111 35 -16 66 -29 69
-29 14 0 174 -98 243 -149 144 -106 321 -300 411 -453 159 -266 229 -531 224
-842 -3 -161 -18 -266 -60 -411 -47 -161 -151 -375 -234 -479 -17 -21 -31 -42
-31 -47 0 -17 -228 -238 -303 -293 -199 -147 -446 -254 -665 -290 -15 -3 -45
-8 -67 -11 -74 -13 -325 -12 -423 1 -451 61 -871 331 -1116 716 -102 161 -195
400 -221 569 -34 222 -32 355 10 604 11 63 64 222 103 310 159 351 448 642
789 794 84 37 222 86 274 97 84 17 128 25 183 30 33 3 62 7 64 9 8 7 306 -4
377 -15z"/>
<path d="M4058 5385 c-2 -2 -23 -6 -48 -9 -126 -15 -338 -92 -449 -163 -198
-127 -357 -302 -455 -500 -33 -66 -81 -195 -89 -239 -2 -11 -7 -30 -10 -44
-15 -59 -19 -103 -22 -225 -2 -71 1 -157 6 -190 82 -528 472 -931 994 -1025
180 -33 401 -17 585 42 86 27 260 117 335 173 220 164 383 404 454 669 29 108
31 122 36 276 9 337 -112 643 -347 878 -179 178 -397 295 -638 343 -57 11
-343 22 -352 14z m302 -179 c25 -6 58 -13 95 -20 41 -9 132 -44 200 -78 246
-122 444 -354 524 -612 20 -63 24 -80 37 -146 13 -64 12 -271 -2 -346 -92
-508 -541 -878 -1044 -859 -137 5 -178 11 -280 41 -333 101 -599 367 -694 696
-31 106 -35 133 -43 244 -25 388 196 782 548 972 95 51 257 102 364 115 44 5
266 0 295 -7z"/>
</g>
</svg>
