<svg id="Capa_1" data-name="Capa 1" xmlns="http://www.w3.org/2000/svg" viewBox="0 0 174.88 174.88"><defs><style>.cls-1{fill:#6e6e6d;}</style></defs><title>avatar-non-profile</title><path id="Icon_awesome-user-circle" data-name="Icon awesome-user-circle" class="cls-1" d="M7199.5,7112.06a87.44,87.44,0,1,0,87.44,87.45v0a87.43,87.43,0,0,0-87.41-87.43Zm0,33.85a31,31,0,1,1-31,31h0A31,31,0,0,1,7199.5,7145.91Zm0,121.28a67.51,67.51,0,0,1-51.64-24.07,39.32,39.32,0,0,1,34.73-21.06,8.82,8.82,0,0,1,2.5.39,46.86,46.86,0,0,0,14.42,2.43,46.28,46.28,0,0,0,14.43-2.43,8.82,8.82,0,0,1,2.5-.39,39.32,39.32,0,0,1,34.73,21.06,67.57,67.57,0,0,1-51.67,24.07Z" transform="translate(-7112.06 -7112.06)"/></svg>