<svg id="Capa_1" data-name="Capa 1" xmlns="http://www.w3.org/2000/svg" viewBox="0 0 300.3 403.32"><defs><style>.cls-1{fill:#007aff;}</style></defs><g id="Grupo_175" data-name="Grupo 175"><g id="shop"><path id="Uni칩n_33" data-name="Uni칩n 33" class="cls-1" d="M851.89,742.14a41.62,41.62,0,0,1-41.58-41.55V469.7h0a13.86,13.86,0,0,1,13.86-13.86h55.34l.22-36.9a83.18,83.18,0,0,1,166.25,0l-.22,36.89h51a13.8,13.8,0,0,1,13.8,13.83V700.59a41.59,41.59,0,0,1-41.55,41.55Zm-13.71-41.55A13.87,13.87,0,0,0,852,714.45h217A13.93,13.93,0,0,0,1083,700.59V483.7H838.18Zm179.87-244.76.24-36.94a55.43,55.43,0,1,0-110.84-2.5c0,.83,0,1.66,0,2.5l-.21,36.94Z" transform="translate(-810.31 -338.82)"/></g><rect id="Rect치ngulo_779" data-name="Rect치ngulo 779" class="cls-1" x="14.56" y="117.82" width="267.87" height="267.87" rx="42.3"/></g></svg>