<svg id="Capa_1" data-name="Capa 1" xmlns="http://www.w3.org/2000/svg" xmlns:xlink="http://www.w3.org/1999/xlink" viewBox="0 0 115.89 150"><defs><style>.cls-1{fill:none;}.cls-2{clip-path:url(#clip-path);}.cls-3{fill:#242424;}</style><clipPath id="clip-path" transform="translate(-7141.55 -7124.39)"><rect class="cls-1" x="7124.5" y="7124.38" width="150" height="150"/></clipPath></defs><title>bag-above-white</title><g class="cls-2"><g id="Enmascarar_grupo_1" data-name="Enmascarar grupo 1"><g id="bag-black"><path id="Trazado_1" data-name="Trazado 1" class="cls-3" d="M7257.18,7214c0,5,.3,10.06.26,15.05,0,2.71-.41,5.34-.67,8a44.31,44.31,0,0,1-6.67,19.38c-2.17,3.4-4.93,6.62-9.5,6.8-.74-2.34-1.34-5-2.12-7.56-.28-.95-.51-1.92-.7-2.9l-.12-.64c-.72-3.72-1.72-7.28-2.45-11a57.33,57.33,0,0,1-.76-6,163,163,0,0,1-.4-21.2h23.13Z" transform="translate(-7141.55 -7124.39)"/><path id="Trazado_2" data-name="Trazado 2" class="cls-3" d="M7255.83,7201a5.94,5.94,0,0,1,.81,4c-7.18,0-14.35.32-21.52,0A92,92,0,0,1,7239,7188a9.15,9.15,0,0,1,.83-2.37,1.45,1.45,0,0,1,.89-.32,42.94,42.94,0,0,1,7.52.2c2.08,2,3.23,5.93,4.35,8.4l.08.17Z" transform="translate(-7141.55 -7124.39)"/><path id="Trazado_3" data-name="Trazado 3" class="cls-3" d="M7224.36,7155.29a97.85,97.85,0,0,1,11.4,10.61,97.51,97.51,0,0,0-10.51,38h-80.34a23.18,23.18,0,0,1,1-4.18c.5-1.5,1.11-3,1.72-4.42,6.12-14.51,13.14-29.65,26-38.34a12.21,12.21,0,0,1,5.55-2.39c2.13-.21,4.23.55,6.3,1.09,8.54,2.23,17.62.93,26-1.69,3-.92,6.16-2,9.11-1A13.41,13.41,0,0,1,7224.36,7155.29Z" transform="translate(-7141.55 -7124.39)"/><path id="Trazado_4" data-name="Trazado 4" class="cls-3" d="M7230.77,7125.31c.74,1.8-.36,3.8-1.43,5.41l-2.38,3.59a31.17,31.17,0,0,1-2.9,4c-4.82,5.32-12.53,6.79-19.14,8.24a.88.88,0,0,1-1-.71.86.86,0,0,1,.12-.63l5.9-9.41c.78-1.25,1.6-2.74,1.14-4.16a1.27,1.27,0,0,0-.38-.61,1.43,1.43,0,0,0-.63-.24,5.48,5.48,0,0,0-4,1.23,14.92,14.92,0,0,0-2.92,3.27,87.09,87.09,0,0,0-6.11,9.22.94.94,0,0,1-1.27.39,1,1,0,0,1-.45-.54,76.26,76.26,0,0,0-4.3-9.54,4.59,4.59,0,0,0-1.07-1.55,4.35,4.35,0,0,0-2.63-.68,2.64,2.64,0,0,0-1.49.24,2.1,2.1,0,0,0-.87,1.45c-.33,1.71.52,3.41,1.35,4.93.92,1.69,2.49,5.13,3.41,6.83-5.4,1.69-10.21-3.32-14-6.41a20.41,20.41,0,0,1-2.81-2.61,21,21,0,0,1-1.76-2.62,22.59,22.59,0,0,1-2.83-6,9.5,9.5,0,0,1-.16-4H7230a1.77,1.77,0,0,1,.76.92Z" transform="translate(-7141.55 -7124.39)"/><path id="Trazado_5" data-name="Trazado 5" class="cls-3" d="M7224.22,7217.43a394.9,394.9,0,0,0,7.85,52.2c-9.45,5-19.9,4.88-30.12,4.7-15.67-.29-32.28-1-45.33-9.94a26.89,26.89,0,0,1-5.71-5.09,31.09,31.09,0,0,1-4.19-7.18c-5.38-12.09-7.14-26.2-2.46-38.82H7148l71.2,0c1.53,0,3.3.11,4.23,1.37A5.28,5.28,0,0,1,7224.22,7217.43Z" transform="translate(-7141.55 -7124.39)"/></g></g></g></svg>