<svg id="Capa_1" data-name="Capa 1" xmlns="http://www.w3.org/2000/svg" viewBox="0 0 645 730.62"><defs><style>.cls-1,.cls-3,.cls-4{fill:none;stroke:gray;}.cls-1,.cls-3{stroke-linecap:round;stroke-linejoin:round;}.cls-1{stroke-width:45px;}.cls-2{fill:gray;}.cls-3,.cls-4{stroke-width:32px;}</style></defs><g id="Icon_feather-check-circle" data-name="Icon feather-check-circle"><path id="Trazado_708" data-name="Trazado 708" class="cls-1" d="M1272.5,519.5v27.6C1272.41,712.79,1138,847,972.33,846.93S672.41,712.44,672.5,546.76,807,246.83,972.67,246.93a300,300,0,0,1,121.93,26" transform="translate(-650 -138.8)"/><path id="Icon_ionic-ios-arrow-forward" data-name="Icon ionic-ios-arrow-forward" class="cls-2" d="M1109.79,274.59,1036.44,166a17.43,17.43,0,0,1,4.62-24.2l.1-.06a17.63,17.63,0,0,1,24.32,4.72l83.1,123.12a17.46,17.46,0,0,1-4.1,23.8L1020.84,377a17.5,17.5,0,1,1-19.6-29Z" transform="translate(-650 -138.8)"/></g><g id="Icon_feather-box" data-name="Icon feather-box"><path id="Trazado_705" data-name="Trazado 705" class="cls-3" d="M1133.46,649.62V511.84A34.45,34.45,0,0,0,1116.24,482L995.69,413.13a34.47,34.47,0,0,0-34.45,0L840.69,482a34.46,34.46,0,0,0-17.23,29.85V649.62a34.48,34.48,0,0,0,17.23,29.8l120.55,68.89a34.47,34.47,0,0,0,34.45,0l120.55-68.89A34.45,34.45,0,0,0,1133.46,649.62Z" transform="translate(-650 -138.8)"/><path id="Trazado_706" data-name="Trazado 706" class="cls-3" d="M828.14,493.93l150.35,87,150.35-87" transform="translate(-650 -138.8)"/><path id="Trazado_707" data-name="Trazado 707" class="cls-3" d="M978.46,754.33V580.73" transform="translate(-650 -138.8)"/><line id="Línea_73" data-name="Línea 73" class="cls-4" x1="259.57" y1="309.93" x2="408.83" y2="401.78"/></g></svg>