<svg id="Capa_1" data-name="Capa 1" xmlns="http://www.w3.org/2000/svg" viewBox="0 0 532 589.81"><defs><style>.cls-1,.cls-2{fill:none;stroke:gray;stroke-width:32px;}.cls-1{stroke-linecap:round;stroke-linejoin:round;}</style></defs><g id="Icon_feather-box" data-name="Icon feather-box"><path id="Trazado_705" data-name="Trazado 705" class="cls-1" d="M1210.46,650.44V428.22a55.57,55.57,0,0,0-27.78-48.15L988.24,269a55.58,55.58,0,0,0-55.56,0L738.24,380.07a55.57,55.57,0,0,0-27.78,48.15V650.44a55.57,55.57,0,0,0,27.78,48.06L932.68,809.61a55.58,55.58,0,0,0,55.56,0L1182.68,698.5A55.55,55.55,0,0,0,1210.46,650.44Z" transform="translate(-694.46 -245.52)"/><path id="Trazado_706" data-name="Trazado 706" class="cls-1" d="M718,399.33l242.5,140.28L1203,399.33" transform="translate(-694.46 -245.52)"/><path id="Trazado_707" data-name="Trazado 707" class="cls-1" d="M960.46,819.33v-280" transform="translate(-694.46 -245.52)"/><line id="Línea_73" data-name="Línea 73" class="cls-2" x1="154.89" y1="80.91" x2="395.63" y2="229.05"/></g></svg>