<svg id="Capa_1" data-name="Capa 1" xmlns="http://www.w3.org/2000/svg" viewBox="0 0 173.57 173.57"><defs><style>.cls-1{fill:#fff;}</style></defs><path id="Icon_ionic-ios-close" data-name="Icon ionic-ios-close" class="cls-1" d="M7219.83,7199.5l61.42-61.42a14.38,14.38,0,0,0-20.33-20.26l-61.42,61.41-61.42-61.41a14.38,14.38,0,1,0-22,18.56,13.08,13.08,0,0,0,1.71,1.7l61.41,61.42-61.41,61.42a14.38,14.38,0,0,0,20.26,20.26l61.42-61.41,61.42,61.41a14.38,14.38,0,1,0,22-18.56,13.08,13.08,0,0,0-1.71-1.7Z" transform="translate(-7112.72 -7112.72)"/></svg>