<svg id="Capa_1" data-name="Capa 1" xmlns="http://www.w3.org/2000/svg" viewBox="0 0 322 412"><defs><style>.cls-1,.cls-2{fill:none;stroke:#007aff;stroke-linejoin:round;stroke-width:22px;}.cls-2{stroke-linecap:round;}</style></defs><g id="document-text-outline"><path id="Trazado_751" data-name="Trazado 751" class="cls-1" d="M1130.56,477.26V659.89a45,45,0,0,1-45,45h-210a45,45,0,0,1-45-45v-300a45,45,0,0,1,45-45h92.58a30,30,0,0,1,21.19,8.79L1121.75,456.1a30,30,0,0,1,8.79,21.19Z" transform="translate(-819.56 -303.89)"/><path id="Trazado_752" data-name="Trazado 752" class="cls-2" d="M961.81,323.33V449.9a33.75,33.75,0,0,0,33.75,33.75h126.57" transform="translate(-819.56 -303.89)"/><path id="Trazado_753" data-name="Trazado 753" class="cls-2" d="M896.18,539.89h168.75" transform="translate(-819.56 -303.89)"/><path id="Trazado_754" data-name="Trazado 754" class="cls-2" d="M896.18,614.89h168.75" transform="translate(-819.56 -303.89)"/></g></svg>