<svg id="Capa_1" data-name="Capa 1" xmlns="http://www.w3.org/2000/svg" viewBox="0 0 500 480.77"><defs><style>.cls-1{fill:#007aff;}</style></defs><path id="Icon_ionic-ios-heart-empty" data-name="Icon ionic-ios-heart-empty" class="cls-1" d="M1075.85,300h-1.2a136.76,136.76,0,0,0-114.19,62.49A136.75,136.75,0,0,0,846.27,300h-1.19A135.88,135.88,0,0,0,710.46,435.85a292.56,292.56,0,0,0,57.45,159.49c72.36,98.92,192.55,185.47,192.55,185.47S1080.65,694.26,1153,595.34a292.56,292.56,0,0,0,57.45-159.49A135.87,135.87,0,0,0,1075.85,300Zm50,275.49a921.7,921.7,0,0,1-165.39,163A923.08,923.08,0,0,1,795.08,575.39a259.28,259.28,0,0,1-51-139.54A102,102,0,0,1,845.32,333.8h1.07a100.81,100.81,0,0,1,49.4,13A105,105,0,0,1,932.32,381a33.78,33.78,0,0,0,56.42,0,106.09,106.09,0,0,1,36.54-34.19,100.84,100.84,0,0,1,49.4-13h1.08A102,102,0,0,1,1177,435.85a262.64,262.64,0,0,1-51.11,139.66Z" transform="translate(-710.46 -300.04)"/></svg>