<svg id="Capa_1" data-name="Capa 1" xmlns="http://www.w3.org/2000/svg" viewBox="0 0 300 300"><defs><style>.cls-1{fill:#007aff;}</style></defs><g id="duplicate"><path id="Trazado_779" data-name="Trazado 779" class="cls-1" d="M1071.86,359.89H889.26a58.7,58.7,0,0,0-58.7,58.7v182.6a58.7,58.7,0,0,0,58.7,58.7h182.6a58.71,58.71,0,0,0,58.7-58.7h0V418.59a58.71,58.71,0,0,0-58.7-58.7Zm-26.46,163H993.6v51.8a13.32,13.32,0,0,1-12.42,13.39,13,13,0,0,1-13.65-12.41c0-.2,0-.4,0-.61V522.88h-51.8a13.34,13.34,0,0,1-13.39-12.42,13.06,13.06,0,0,1,12.41-13.66h52.84V445A13.32,13.32,0,0,1,980,431.66a13,13,0,0,1,13.65,12.4c0,.21,0,.41,0,.62V496.9h52.22a13.05,13.05,0,0,1,13.06,13c0,.21,0,.42,0,.64A13.33,13.33,0,0,1,1045.4,522.93Z" transform="translate(-830.56 -359.89)"/></g></svg>