<svg id="Capa_1" data-name="Capa 1" xmlns="http://www.w3.org/2000/svg" viewBox="0 0 300 300.03"><defs><style>.cls-1{fill:#007aff;}</style></defs><g id="ios-bell"><path id="Trazado_775" data-name="Trazado 775" class="cls-1" d="M1078.76,483.25c0-74.34-41-99.64-79.38-105.28,0-.37.08-.76.08-1.25a17.94,17.94,0,0,0-18.9-16.81A17.64,17.64,0,0,0,962,376.58a.91.91,0,0,0,0,.17A6.6,6.6,0,0,0,962,378c-38.43,5.71-79.68,31.08-79.68,105.42,0,86.69-22.12,96-51.8,120.35h300c-29.54-24.45-51.8-33.82-51.8-120.5Z" transform="translate(-830.56 -359.88)"/><path id="Trazado_776" data-name="Trazado 776" class="cls-1" d="M980.71,659.91a45.47,45.47,0,0,0,45.43-37.79H935.27A45.43,45.43,0,0,0,980.71,659.91Z" transform="translate(-830.56 -359.88)"/></g></svg>