<svg id="Capa_1" data-name="Capa 1" xmlns="http://www.w3.org/2000/svg" viewBox="0 0 300.75 410.1"><defs><style>.cls-1{fill:#007aff;}</style></defs><path id="Sustracción_44" data-name="Sustracción 44" class="cls-1" d="M1076.24,714.94H884.86a54.83,54.83,0,0,1-54.68-54.68V509.89a54.81,54.81,0,0,1,54.68-54.68h13.68V386.86a82,82,0,1,1,164,0v68.35h13.68a54.81,54.81,0,0,1,54.68,54.68V660.26A54.83,54.83,0,0,1,1076.24,714.94ZM982.06,529.63a36.46,36.46,0,0,0-36.46,36.46h0A36.65,36.65,0,0,0,966.43,599l3.48,1.65V647.1a12.15,12.15,0,0,0,24.3,0V600.68l3.47-1.65a36.46,36.46,0,0,0-15.61-69.4Zm-1.51-197.44a54.74,54.74,0,0,0-54.68,54.68v68.35h109.36V386.87a54.68,54.68,0,0,0-54.67-54.69h0Z" transform="translate(-830.18 -304.84)"/></svg>