<svg id="Capa_1" data-name="Capa 1" xmlns="http://www.w3.org/2000/svg" viewBox="0 0 300.75 382.77"><defs><style>.cls-1{fill:#007aff;}</style></defs><g id="download"><path id="Trazado_777" data-name="Trazado 777" class="cls-1" d="M1083.08,427.86H994.22v131l45-45a13.67,13.67,0,0,1,19.32,19.32l-68.23,68.3a13.67,13.67,0,0,1-19.32,0l-68.41-68.35a13.67,13.67,0,0,1,19.32-19.32l45,45v-131H878a47.9,47.9,0,0,0-47.85,47.85V653.42A47.89,47.89,0,0,0,878,701.27h205a47.89,47.89,0,0,0,47.85-47.85V475.71A47.9,47.9,0,0,0,1083.08,427.86Z" transform="translate(-830.18 -318.5)"/><path id="Trazado_778" data-name="Trazado 778" class="cls-1" d="M994.22,332.17a13.67,13.67,0,0,0-27.34,0v95.69h27.34Z" transform="translate(-830.18 -318.5)"/></g></svg>