<svg id="Capa_1" data-name="Capa 1" xmlns="http://www.w3.org/2000/svg" viewBox="0 0 300.25 346.44"><defs><style>.cls-1{fill:#007aff;}</style></defs><g id="stats-chart"><path id="Trazado_764" data-name="Trazado 764" class="cls-1" d="M870.85,683.1H847.76a17.33,17.33,0,0,1-17.33-17.33V561.85a17.32,17.32,0,0,1,17.33-17.32h23.09a17.32,17.32,0,0,1,17.32,17.32V665.78a17.33,17.33,0,0,1-17.33,17.33Z" transform="translate(-830.43 -336.67)"/><path id="Trazado_765" data-name="Trazado 765" class="cls-1" d="M1032.52,683.1h-23.1a17.33,17.33,0,0,1-17.32-17.33V492.57a17.33,17.33,0,0,1,17.32-17.33h23.1a17.33,17.33,0,0,1,17.33,17.33V665.78a17.33,17.33,0,0,1-17.33,17.33Z" transform="translate(-830.43 -336.67)"/><path id="Trazado_766" data-name="Trazado 766" class="cls-1" d="M1113.35,683.1h-23.09a17.33,17.33,0,0,1-17.33-17.33v-254a17.32,17.32,0,0,1,17.33-17.32h23.09a17.32,17.32,0,0,1,17.33,17.32v254a17.33,17.33,0,0,1-17.33,17.33Z" transform="translate(-830.43 -336.67)"/><path id="Trazado_767" data-name="Trazado 767" class="cls-1" d="M951.69,683.1h-23.1a17.33,17.33,0,0,1-17.33-17.33V354a17.33,17.33,0,0,1,17.33-17.32h23.1A17.32,17.32,0,0,1,969,354V665.78a17.32,17.32,0,0,1-17.32,17.33Z" transform="translate(-830.43 -336.67)"/></g></svg>