<svg id="Capa_1" data-name="Capa 1" xmlns="http://www.w3.org/2000/svg" viewBox="0 0 300.84 351.85"><defs><style>.cls-1{fill:#999;}</style></defs><g id="Grupo_176" data-name="Grupo 176"><g id="Grupo_175" data-name="Grupo 175"><g id="shop"><path id="Uni칩n_33" data-name="Uni칩n 33" class="cls-1" d="M851.69,716.19a39.17,39.17,0,0,1-41.65-36V480.35h0a13.05,13.05,0,0,1,13.88-12h55.39l.22-32c.07-39.76,37.33-71.95,83.29-71.95s83.23,32.19,83.26,71.95l-.21,32H1097a15.06,15.06,0,0,1,9.82,3.5,11.2,11.2,0,0,1,4.06,8.5V680.23a39.14,39.14,0,0,1-41.61,36Zm-13.72-36a13,13,0,0,0,13.88,12h217.37a13.11,13.11,0,0,0,13.88-12V492.49H838ZM1018.1,468.36l.24-32A46.94,46.94,0,0,0,991,393.77a63.12,63.12,0,0,0-56.38,0,47,47,0,0,0-27.32,42.62l-.21,32Z" transform="translate(-810.04 -364.43)"/></g><rect id="Rect치ngulo_779" data-name="Rect치ngulo 779" class="cls-1" x="10.07" y="116.79" width="273.17" height="214.63" rx="29.27"/></g></g></svg>