<svg id="Capa_1" data-name="Capa 1" xmlns="http://www.w3.org/2000/svg" viewBox="0 0 300.26 277.09"><defs><style>.cls-1{fill:#999;}</style></defs><path id="heart" class="cls-1" d="M960.43,679a23.17,23.17,0,0,1-13-4c-56.71-38.5-81.27-64.89-94.8-81.4a167.25,167.25,0,0,1-42.3-110.4,81.4,81.4,0,0,1,80.16-81.27,87.75,87.75,0,0,1,66.7,32.84,4.33,4.33,0,0,0,6.11.42,3.42,3.42,0,0,0,.43-.42,87.72,87.72,0,0,1,66.71-32.84,81.4,81.4,0,0,1,80.15,81.28,167.32,167.32,0,0,1-42.41,110.4c-13.54,16.51-38.09,42.9-94.8,81.4A23.11,23.11,0,0,1,960.43,679Z" transform="translate(-810.33 -401.88)"/></svg>