<svg id="Capa_1" data-name="Capa 1" xmlns="http://www.w3.org/2000/svg" viewBox="0 0 300 300"><defs><style>.cls-1{fill:#999;}</style></defs><path id="Sustracción_45" data-name="Sustracción 45" class="cls-1" d="M960.46,690.42a150,150,0,1,1,106.06-43.93A149,149,0,0,1,960.46,690.42ZM850.11,547.08a4.36,4.36,0,0,0-3.49,1.37c-5.88,6.86,5.64,20.28,17.84,34.54l3.17,3.71c5.46,5.26,24.8,22.42,44.08,22.71a68.4,68.4,0,0,0,48.46-25.61c13.72-15.72,20.72-30.59,16.57-35.35a2.54,2.54,0,0,0-2.06-.73A53.33,53.33,0,0,0,959.57,553a123.27,123.27,0,0,1-47.86,13.14,109.15,109.15,0,0,1-44.36-12.86,53.47,53.47,0,0,0-17.24-6.23ZM951.9,503h0l15.79,11.26a2.59,2.59,0,0,0,1.34.48,1.88,1.88,0,0,0,1.19-.52,2.12,2.12,0,0,0,.74-2.41l-6.21-18.08,16-11.52.39-.33a2,2,0,0,0-1.58-3.58H959.89l-6-17.88a2.18,2.18,0,0,0-4.08,0l-6,17.88H924a2.14,2.14,0,0,0-2.15,2.14,1.55,1.55,0,0,0,0,.37,2.05,2.05,0,0,0,.86,1.51l16.19,11.4-6.22,18.08a2.15,2.15,0,0,0,.74,2.41,2.07,2.07,0,0,0,1.21.52,2.59,2.59,0,0,0,1.34-.48L951.81,503Zm-77.14,0h0l15.8,11.26a2.59,2.59,0,0,0,1.34.48,1.93,1.93,0,0,0,1.2-.52,2.13,2.13,0,0,0,.73-2.41l-6.21-18.08,16-11.52.4-.33a2.21,2.21,0,0,0,.69-1.44,2.27,2.27,0,0,0-2.28-2.14H882.77l-6-17.88a2.18,2.18,0,0,0-4.08,0l-6,17.88H846.85a2.14,2.14,0,0,0-2.14,2.14,2.28,2.28,0,0,0,0,.37,2.14,2.14,0,0,0,.86,1.51l16.2,11.4-6.22,18.08a2.15,2.15,0,0,0,.74,2.41,2.07,2.07,0,0,0,1.21.52,2.62,2.62,0,0,0,1.34-.48L874.63,503Z" transform="translate(-810.46 -390.42)"/></svg>