<svg id="Capa_1" data-name="Capa 1" xmlns="http://www.w3.org/2000/svg" viewBox="0 0 300.83 351.9"><defs><style>.cls-1{fill:#999;}</style></defs><path id="Sustracción_46" data-name="Sustracción 46" class="cls-1" d="M1069.28,716.23H851.7a39.26,39.26,0,0,1-41.65-36V480.35a13.07,13.07,0,0,1,13.88-12h55.43l.21-32c0-39.64,37.38-71.94,83.26-72s83.25,32.3,83.27,72l-.23,32h51.18a14.89,14.89,0,0,1,9.76,3.51,11.26,11.26,0,0,1,4.07,8.49v199.9A39.23,39.23,0,0,1,1069.28,716.23ZM907.71,577.76a7.79,7.79,0,1,0,0,15.57h47v47a7.79,7.79,0,1,0,15.57,0v-47h47a7.79,7.79,0,1,0,0-15.57h-47v-47a7.79,7.79,0,0,0-15.57,0v47Zm55.13-190.67a62.27,62.27,0,0,0-28.19,6.65,47,47,0,0,0-27.32,42.63l-.23,32h111l.24-32A47,47,0,0,0,991,393.74a62.13,62.13,0,0,0-28.19-6.63Z" transform="translate(-810.05 -364.41)"/></svg>