<svg id="Capa_1" data-name="Capa 1" xmlns="http://www.w3.org/2000/svg" xmlns:xlink="http://www.w3.org/1999/xlink" viewBox="0 0 715 715"><defs><style>.cls-1{fill:url(#Degradado_sin_nombre_5);}.cls-2{fill:none;stroke:#717070;stroke-width:2px;}.cls-3{fill:url(#Degradado_sin_nombre_2);}</style><linearGradient id="Degradado_sin_nombre_5" x1="1.43" y1="1224.85" x2="1.43" y2="1223.85" gradientTransform="matrix(715, 0, 0, -715, -661.72, 875768.06)" gradientUnits="userSpaceOnUse"><stop offset="0" stop-color="#fff"/><stop offset="1" stop-color="#ebebeb"/></linearGradient><linearGradient id="Degradado_sin_nombre_2" x1="1.39" y1="1224.7" x2="1.39" y2="1223.7" gradientTransform="matrix(476.32, 0, 0, -358.81, -266.22, 439933.56)" gradientUnits="userSpaceOnUse"><stop offset="0" stop-color="#e73938"/><stop offset="1" stop-color="#e52421"/></linearGradient></defs><g id="Rectángulo_123" data-name="Rectángulo 123"><rect class="cls-1" width="715" height="715" rx="135"/><rect class="cls-2" x="1" y="1" width="713" height="713" rx="134"/></g><path id="Icon_simple-huawei-2" data-name="Icon simple-huawei-2" class="cls-3" d="M229.66,565s-36.72,35.13-38.7,72.24v6.95c1.58,30,24.21,47.63,24.21,47.63C251.48,727.33,339.4,772,360,782.11a1.83,1.83,0,0,0,2-.2l.4-.8v-.79C306.06,657.47,229.66,565,229.66,565ZM348.33,812.27a2.09,2.09,0,0,0-2-1.59l-146.46,5.16c15.87,28.38,42.67,50.21,70.65,43.66,19-5,62.71-35.32,77-45.64,1.19-1,.79-1.79.79-1.79Zm1.59-15.48C285.62,753.33,161,686.84,161,686.84a89.71,89.71,0,0,0-4.17,25.8V714c0,21.24,7.94,36.12,7.94,36.12,15.88,33.54,46.44,43.66,46.44,43.66A81.69,81.69,0,0,0,239,800c2.38.4,87.32,0,110,0a2.08,2.08,0,0,0,1.58-1v-1.19a1.34,1.34,0,0,0-.6-1Zm-13.3-290.35a67.89,67.89,0,0,0-51,62.52v8.13a101.18,101.18,0,0,0,3.18,20.84c13.1,57.55,76.6,151.82,90.3,171.67a1.9,1.9,0,0,0,2,.6,2,2,0,0,0,1.19-2c21-210.37-22-266.33-22-266.33C353.89,502.28,336.62,506.44,336.62,506.44ZM501.34,551.5s-9.72-35.72-48.42-45.25c0,0-11.31-2.78-23.22-4.37,0,0-43.26,55.77-22.23,266.53a1.72,1.72,0,0,0,1.19,1.59,1.48,1.48,0,0,0,2-.6h0C424.94,749,488.05,655.09,501,597.93c0,0,7.14-27.78.4-46.44ZM443.39,810.88s-1.39,0-1.78,1c0,0-.2,1.39.6,2,13.89,10.12,56.56,39.69,77,45.64a35.6,35.6,0,0,0,8.53,1.19h2.78c13.69-.4,37.7-7.34,59.53-44.85l-146.86-5ZM598.78,644c2.78-40.88-38.5-78.79-38.5-79,0,0-76.4,92.48-132.37,214.33a2.64,2.64,0,0,0,.4,2.58l.8.2h1.19c21-10.51,108.35-55,144.47-90.1,0,0,22.82-18.45,24-48ZM629,686.44S504.32,753.33,440,796.59a2.1,2.1,0,0,0-.6,2.18s.6,1.19,1.39,1.19c23,0,110.34,0,112.53-.4a85.72,85.72,0,0,0,25.2-5.75s31-9.92,47-45C625.57,748.76,640.06,720,629,686.44Z" transform="translate(-37.72 -323.94)"/></svg>