<svg id="Capa_1" data-name="Capa 1" xmlns="http://www.w3.org/2000/svg" xmlns:xlink="http://www.w3.org/1999/xlink" viewBox="0 0 715 715"><defs><style>.cls-1{fill:url(#Degradado_sin_nombre_2);}.cls-2{fill:none;stroke:#707070;}.cls-3{fill:#fff;}</style><linearGradient id="Degradado_sin_nombre_2" x1="6241.05" y1="7740.57" x2="6241.05" y2="7739.57" gradientTransform="matrix(715, 0, 0, -715, -4461995, 5534510)" gradientUnits="userSpaceOnUse"><stop offset="0" stop-color="#0068ae"/><stop offset="1" stop-color="#022a4d"/></linearGradient></defs><g id="Rect치ngulo_123" data-name="Rect치ngulo 123"><rect class="cls-1" width="715" height="715" rx="135"/><rect class="cls-2" x="0.5" y="0.5" width="714" height="714" rx="134.5"/></g><g id="Icon_ionic-logo-playstation" data-name="Icon ionic-logo-playstation"><path id="Uni칩n_53" data-name="Uni칩n 53" class="cls-3" d="M7141.71,7350.09V7026s25.24,4,67.67,16.64,60.87,18.82,76.34,28a95.21,95.21,0,0,1,19.27,14.73,74.7,74.7,0,0,1,14.93,21c6.78,14.1,9,29.86,9.76,45.33.36,10.13.26,20.34-1.44,30.11a71.18,71.18,0,0,1-9,24.69,44.61,44.61,0,0,1-16.65,16.11,43.3,43.3,0,0,1-21.71,5.14c-11.4.19-27.85-3.43-37.82-8.21V7099c0-8.41-6.33-15.19-14-15.19h-.45c-7.77,0-14.55,6.78-14.55,15.19v3.44c0,91.08-.08,270.9-.08,270.9Zm86.84-23.33s82.94-27.33,120-40.44c5-1.89,10.4-3.26,14.65-6.69,1.82-1.35,3.44-3.53,2.62-5.88-.9-2.09-3-3.26-5-4.08-5.59-2.17-11.66-2.63-17.53-2.81a85.38,85.38,0,0,0-27.42,4.18c-26.22,9.21-87.29,28.76-87.29,28.76v-44.13s41.08-11.69,60.88-13.94c7.16-.81,20.81-1,28.05-1.27,23.88.1,48,2.8,70.82,10.23,4.88,1.54,8.32,2.78,13.3,4.51,8,2.89,15.91,6.51,22.33,12.22,3.81,3.44,7.07,8.13,7.15,13.57a17.92,17.92,0,0,1-4.52,11.85c-5.41,6.06-12.57,10.21-19.72,13.83-7.69,3.89-15.83,6.42-23.88,9.41-48.49,17.36-154.49,53.18-154.49,53.18Zm-226.39-5c-8.41-2.43-16.83-5.69-23.89-11a27.38,27.38,0,0,1-9.13-11.38,15.72,15.72,0,0,1,.45-12.31,23.67,23.67,0,0,1,8.32-9.13c7.87-5.51,16.57-9.67,25.42-13.39,7.61-3.25,15.47-5.8,23.24-8.58,31.49-11.13,100.67-33.56,100.67-33.56v42.67s-56,17.84-80.76,26.69c-3.44,1.36-7,2.81-9.59,5.44-1.28,1.27-2.25,3.08-1.54,4.88.82,2.17,3,3.26,5,4.16,5.52,2.17,11.58,2.52,17.47,2.81a96.9,96.9,0,0,0,19.51-2,124.33,124.33,0,0,0,12.67-3.89c27.41-9,37.35-11.32,37.35-11.32v38c-12.65,2.25-32.1,3.79-45.23,4q-2.7.06-5.4.06A237.19,237.19,0,0,1,7002.16,7321.77Z" transform="translate(-6842 -6842)"/></g></svg>