<svg id="Capa_1" data-name="Capa 1" xmlns="http://www.w3.org/2000/svg" xmlns:xlink="http://www.w3.org/1999/xlink" viewBox="0 0 715 715"><defs><style>.cls-1{fill:url(#Degradado_sin_nombre_2);}.cls-2{fill:#fff;}</style><linearGradient id="Degradado_sin_nombre_2" x1="0.98" y1="1224.73" x2="1.87" y2="1223.85" gradientTransform="matrix(715, 0, 0, -715, -661.72, 875725.39)" gradientUnits="userSpaceOnUse"><stop offset="0" stop-color="#2d509f"/><stop offset="1" stop-color="#438dcc"/></linearGradient></defs><rect id="Rectángulo_123" data-name="Rectángulo 123" class="cls-1" width="715" height="715" rx="135"/><path id="Icon_simple-samsung" data-name="Icon simple-samsung" class="cls-2" d="M576.42,683.84l1.07,62.51H577l-18.08-62.51H529.08v78.73h19.68l-1.06-64.63h.53l19.42,64.63h28.46V683.84Zm-374.77,0-14.89,79.53H208.3L219.2,691h.53l10.64,72.35h21.29L237,683.84Zm120.23,0L312,744.49h-.54l-9.84-60.65H269.21l-1.6,79.53h19.95l.54-71.55h.26l13.3,71.55h20.22l13.3-71.55h.53l.53,71.55h19.95l-1.86-79.53ZM153.25,740.76a11.32,11.32,0,0,1,.26,5.86c-.53,2.65-2.39,5.31-7.71,5.31-5.06,0-8-2.92-8-7.18V737H116.54v6.12c0,17.82,14.1,23.14,29,23.14,14.36,0,26.33-5.06,28.2-18.09a39,39,0,0,0,0-13c-3.73-16.76-34-21.55-36.18-30.86a11.25,11.25,0,0,1,0-4.25c.53-2.66,2.4-5.32,7.18-5.32s7.45,2.92,7.45,7.18v4.79h19.95v-5.59c0-17.29-15.69-20-26.87-20-14.09,0-25.8,4.79-27.92,17.55a24,24,0,0,0,.26,10.64c3.19,16.5,31.66,21.29,35.64,31.39m258.8,0a11.11,11.11,0,0,1,.26,5.86c-.53,2.66-2.39,5.31-7.71,5.31-5,0-8-2.92-8-7.18V737H375.34v6.12c0,17.55,13.83,22.87,28.73,22.87,14.36,0,26.06-4.79,27.92-18.09a39,39,0,0,0,0-13c-3.19-16.49-33.25-21.54-35.37-30.59a11.25,11.25,0,0,1,0-4.25c.53-2.66,2.39-5.32,7.18-5.32,4.52,0,7.45,2.92,7.45,7.18v4.79h19.68v-5.59c0-17.29-15.43-20-26.6-20-14.1,0-25.54,4.53-27.66,17.56a28.63,28.63,0,0,0,.26,10.64c3.19,16.49,31.12,21,35.11,31.38m67,10.64c5.58,0,7.18-3.72,7.71-5.85a11,11,0,0,0,.27-2.92V683.84h20.21V741a30.5,30.5,0,0,1-.26,5.32c-1.33,14.9-13,19.69-27.67,19.69s-26.33-4.79-27.66-19.69c0-.8-.27-3.72-.27-5.32V683.84h20.22v58.79a9.91,9.91,0,0,0,.26,2.92c0,2.13,1.6,5.85,7.19,5.85m166-.8c5.85,0,7.71-3.72,8.24-5.85a10.27,10.27,0,0,0,.27-2.92V730.39h-8.24v-11.7H673.5V740a43.09,43.09,0,0,1-.27,5.32C671.9,759.91,659.4,765,645.31,765s-26.6-5.06-27.93-19.68a43.15,43.15,0,0,1-.27-5.33V706.45c0-1.33.27-4,.27-5.32,1.86-14.9,13.83-19.68,27.93-19.68s26.34,4.78,27.93,19.68c.27,2.4.27,5.32.27,5.32v2.66h-20v-4.52a16.05,16.05,0,0,0-.27-2.93c-.26-1.86-1.86-5.85-8-5.85-5.85,0-7.45,3.72-8,5.85a16.09,16.09,0,0,0-.26,3.73v36.44a9.88,9.88,0,0,0,.26,2.92c0,2.13,2.13,5.86,7.71,5.86" transform="translate(-37.72 -366.61)"/></svg>